{"title":"Abattoir (2016) 1080p Blu-Ray x264 DTS-HD 5.1 ESub -DDR)","uid":15861305,"size":9960321507,"categoryP":"video","categoryS":"hd___movies","magnet":"?xt=urn:btih:34e234d85e0c7564c1a76d149bb55c966f75dc78&amp;dn=Abattoir+%282016%29+1080p+Blu-Ray+x264+DTS-HD+5.1+ESub+-DDR%29&amp;tr=udp%3A%2F%2Ftracker.leechers-paradise.org%3A6969&amp;tr=udp%3A%2F%2Fzer0day.ch%3A1337&amp;tr=udp%3A%2F%2Fopen.demonii.com%3A1337&amp;tr=udp%3A%2F%2Ftracker.coppersurfer.tk%3A6969&amp;tr=udp%3A%2F%2Fexodus.desync.com%3A6969","seeders":33,"leechers":40,"uploader":"SaM","files":4,"time":1474301139,"description":"HQ 1080p Blu-ray Rip x264\r\n\r\nEnglish DTS-HD MA 5.1 Audio\r\n\r\nEnglish SDH Subtitle\r\n \nhttp://extraimago.com/image/whkw \nhttp://extraimago.com/image/whka \nhttp://extraimago.com/image/whk8 \nhttp://extraimago.com/image/whHf \nhttp://extraimago.com/image/whHW \nhttp://extraimago.com/image/whHA \nhttp://extraimago.com/image/whHv \nhttp://extraimago.com/image/whHu \nhttp://extraimago.com/image/whHV \nhttp://extraimago.com/image/whH6 \nhttp://extraimago.com/image/whHx \nhttp://extraimago.com/image/whHt \nhttp://extraimago.com/image/whHo\r\n\r\nSpecs:\r\nSource: BDremux @ HDT\r\n\r\nFormat : Matroska\r\nFile size : 9.19 GiB\r\nDuration : 1 h 39 min\r\nOverall bit rate : 13.3 Mb/s\r\n\r\nVideo\r\nID : 1\r\nFormat : AVC\r\nFormat/Info : Advanced Video Codec\r\nFormat profile :   \r\nFormat settings, CABAC : Yes\r\nFormat settings, ReFrames : 5 frames\r\nCodec ID : V_MPEG4/ISO/AVC\r\nDuration : 1 h 39 min\r\nBit rate : 10.0 Mb/s\r\nWidth : 1 920 pixels\r\nHeight : 800 pixels\r\nDisplay aspect ratio : 2.40:1\r\nFrame rate mode : Constant\r\nFrame rate : 23.976 (24000/1001) FPS\r\nColor space : YUV\r\nChroma subsampling : 4:2:0\r\nBit depth : 8 bits\r\nScan type : Progressive\r\nBits/(Pixel*Frame) : 0.272\r\nStream size : 6.92 GiB (75%)\r\nForced : No\r\nColor range : Limited\r\nColor primaries : BT.709\r\nTransfer characteristics : BT.709\r\nMatrix coefficients : BT.709\r\n\r\nAudio\r\nID : 2\r\nFormat : DTS\r\nFormat/Info : Digital Theater Systems\r\nFormat profile : MA / Core\r\nMode : 16\r\nFormat settings, Endianness : Big\r\nCodec ID : A_DTS\r\nDuration : 1 h 39 min\r\nBit rate mode : Variable / Constant\r\nBit rate : 3 260 kb/s / 768 kb/s\r\nChannel(s) : 6 channels\r\nChannel positions : Front: L C R, Side: L R, LFE\r\nSampling rate : 48.0 kHz\r\nFrame rate : 93.750 FPS (512 spf)\r\nBit depth : 24 bits\r\nCompression mode : Lossless / Lossy\r\nStream size : 2.26 GiB (25%)\r\nLanguage : English\r\nDefault : Yes\r\nForced : No\r\n\r\n\r\n\r\nChapters = YES","torrent":{"xt":"urn:btih:34e234d85e0c7564c1a76d149bb55c966f75dc78","amp;dn":"Abattoir+%282016%29+1080p+Blu-Ray+x264+DTS-HD+5.1+ESub+-DDR%29","amp;tr":["udp%3A%2F%2Ftracker.leechers-paradise.org%3A6969","udp%3A%2F%2Fzer0day.ch%3A1337","udp%3A%2F%2Fopen.demonii.com%3A1337","udp%3A%2F%2Ftracker.coppersurfer.tk%3A6969","udp%3A%2F%2Fexodus.desync.com%3A6969"],"infoHash":"34e234d85e0c7564c1a76d149bb55c966f75dc78","infoHashBuffer":{"type":"Buffer","data":[52,226,52,216,94,12,117,100,193,167,109,20,155,181,92,150,111,117,220,120]},"announce":[],"urlList":[]}}